PathFileType	4	(X/Y/Z) rotbonepin.trc
DataRate	CameraRate	NumFrames	NumMarkers	Units	OrigDataRate	OrigDataStartFrame	OrigNumFrames
100	100	22	11	mm	100	1	3147
Frame#	Time	gu			centelbow			EpL			centpxt8			centijc7			ij			ts			ac			ai			acc			ijc
		X1	Y1	Z1	X2	Y2	Z2	X3	Y3	Z3	X4	Y4	Z4	X5	Y5	Z5	X6	Y6	Z6	X7	Y7	Z7	X8	Y8	Z8	X9	Y9	Z9  X10	Y10	Z10  X11	Y11	Z11
0	0	352.263	32.019	-4.713	357.252	43.794	250.525	368.355	69.633	242.452	355.983	-170.356	-108.847	358.178	21.334	-154.382	399.497	-14.252	-145.396	276.41	10.285	-91.471	348.723	71.986	-28.44	289.199	-103.456	-32.072	348.723	71.986	-28.44	399.497	-14.252	-145.396
1	0.01	352.266	32.029	-4.719	357.242	43.79	250.52	368.347	69.629	242.448	355.978	-170.368	-108.829	358.181	21.317	-154.384	399.498	-14.27	-145.398	276.426	10.258	-91.464	348.75	71.963	-28.449	289.22	-103.478	-32.055	348.75	71.963	-28.449	399.498	-14.27	-145.398
2	0.02	352.265	32.041	-4.725	357.237	43.783	250.515	368.344	69.622	242.445	355.987	-170.357	-108.81	358.179	21.323	-154.383	399.499	-14.262	-145.396	276.426	10.234	-91.456	348.755	71.948	-28.455	289.229	-103.495	-32.036	348.755	71.948	-28.455	399.499	-14.262	-145.396
3	0.03	352.262	32.05	-4.728	357.237	43.776	250.512	368.345	69.615	242.445	356.004	-170.335	-108.781	358.174	21.34	-154.376	399.498	-14.239	-145.389	276.427	10.239	-91.45	348.755	71.963	-28.459	289.241	-103.485	-32.021	348.755	71.963	-28.459	399.498	-14.239	-145.389
4	0.04	352.262	32.05	-4.728	357.238	43.776	250.513	368.345	69.615	242.445	356.005	-170.324	-108.76	358.161	21.347	-154.372	399.488	-14.229	-145.383	276.462	10.259	-91.447	348.793	71.985	-28.461	289.277	-103.462	-32.013	348.793	71.985	-28.461	399.488	-14.229	-145.383
5	0.05	352.265	32.041	-4.725	357.237	43.784	250.515	368.344	69.623	242.445	355.987	-170.334	-108.781	358.136	21.337	-154.398	399.463	-14.238	-145.408	276.52	10.272	-91.446	348.86	71.99	-28.463	289.324	-103.45	-32.012	348.86	71.99	-28.463	399.463	-14.238	-145.408
6	0.06	352.266	32.033	-4.722	357.237	43.791	250.517	368.344	69.63	242.446	355.974	-170.361	-108.863	358.106	21.311	-154.471	399.437	-14.262	-145.491	276.542	10.273	-91.446	348.896	71.982	-28.471	289.339	-103.451	-32.015	348.896	71.982	-28.471	399.437	-14.262	-145.491
7	0.07	352.27	32.032	-4.721	357.232	43.792	250.519	368.339	69.63	242.448	355.981	-170.392	-108.964	358.091	21.285	-154.555	399.426	-14.287	-145.588	276.52	10.259	-91.444	348.893	71.966	-28.488	289.327	-103.465	-32.015	348.893	71.966	-28.488	399.426	-14.287	-145.588
8	0.08	352.286	32.038	-4.729	357.214	43.785	250.511	368.322	69.624	242.443	355.996	-170.414	-109.017	358.099	21.267	-154.59	399.436	-14.305	-145.633	276.501	10.229	-91.438	348.891	71.942	-28.507	289.331	-103.491	-32.005	348.891	71.942	-28.507	399.436	-14.305	-145.633
9	0.09	352.309	32.046	-4.754	357.188	43.775	250.489	368.298	69.615	242.425	355.999	-170.423	-109.014	358.122	21.259	-154.581	399.455	-14.317	-145.624	276.504	10.206	-91.431	348.899	71.932	-28.518	289.354	-103.507	-31.989	348.899	71.932	-28.518	399.455	-14.317	-145.624
10	0.1	352.319	32.047	-4.789	357.183	43.774	250.453	368.292	69.614	242.39	355.988	-170.415	-108.995	358.13	21.266	-154.568	399.459	-14.314	-145.607	276.51	10.213	-91.428	348.902	71.95	-28.524	289.374	-103.495	-31.979	348.902	71.95	-28.524	399.459	-14.314	-145.607
11	0.11	352.303	32.03	-4.816	357.208	43.793	250.424	368.314	69.632	242.356	355.977	-170.393	-108.987	358.117	21.287	-154.564	399.446	-14.292	-145.603	276.52	10.23	-91.429	348.915	71.973	-28.533	289.395	-103.474	-31.977	348.915	71.973	-28.533	399.446	-14.292	-145.603
12	0.12	352.277	31.999	-4.82	357.236	43.816	250.416	368.34	69.654	242.34	355.972	-170.369	-108.988	358.092	21.311	-154.565	399.425	-14.264	-145.604	276.558	10.234	-91.417	348.969	71.977	-28.54	289.442	-103.469	-31.963	348.969	71.977	-28.54	399.425	-14.264	-145.604
13	0.13	352.255	31.97	-4.817	357.24	43.805	250.419	368.349	69.64	242.339	355.964	-170.355	-108.99	358.062	21.326	-154.565	399.399	-14.244	-145.605	276.62	10.235	-91.38	349.048	71.981	-28.525	289.516	-103.464	-31.921	349.048	71.981	-28.525	399.399	-14.244	-145.605
14	0.14	352.24	31.95	-4.822	357.226	43.752	250.415	368.341	69.585	242.339	355.953	-170.342	-108.987	358.036	21.338	-154.564	399.377	-14.23	-145.605	276.665	10.255	-91.327	349.102	72.013	-28.495	289.584	-103.437	-31.862	349.102	72.013	-28.495	399.377	-14.23	-145.605
15	0.15	352.233	31.942	-4.834	357.212	43.699	250.405	368.331	69.532	242.333	355.96	-170.324	-108.975	358.022	21.354	-154.566	399.366	-14.209	-145.606	276.68	10.288	-91.29	349.12	72.066	-28.479	289.631	-103.395	-31.814	349.12	72.066	-28.479	399.366	-14.209	-145.606
16	0.16	352.232	31.96	-4.842	357.211	43.7	250.398	368.33	69.534	242.329	355.976	-170.307	-108.961	358.017	21.367	-154.57	399.365	-14.191	-145.607	276.696	10.304	-91.276	349.139	72.102	-28.489	289.678	-103.369	-31.788	349.139	72.102	-28.489	399.365	-14.191	-145.607
17	0.17	352.246	32.02	-4.832	357.227	43.766	250.408	368.343	69.601	242.338	355.976	-170.308	-108.961	358.02	21.365	-154.572	399.368	-14.193	-145.608	276.725	10.299	-91.264	349.174	72.112	-28.499	289.735	-103.367	-31.768	349.174	72.112	-28.499	399.368	-14.193	-145.608
18	0.18	352.284	32.096	-4.804	357.249	43.846	250.436	368.363	69.682	242.366	355.959	-170.328	-108.976	358.028	21.349	-154.57	399.371	-14.215	-145.607	276.758	10.305	-91.233	349.203	72.126	-28.472	289.788	-103.361	-31.74	349.203	72.126	-28.472	399.371	-14.215	-145.607
19	0.19	352.332	32.129	-4.774	357.252	43.87	250.467	368.366	69.708	242.4	355.947	-170.34	-108.986	358.033	21.34	-154.565	399.372	-14.228	-145.605	276.785	10.342	-91.193	349.213	72.171	-28.42	289.828	-103.326	-31.708	349.213	72.171	-28.42	399.372	-14.228	-145.605
20	0.2	352.368	32.106	-4.766	357.221	43.838	250.477	368.338	69.675	242.413	355.958	-170.328	-108.978	358.028	21.351	-154.565	399.371	-14.214	-145.605	276.794	10.39	-91.174	349.209	72.231	-28.397	289.858	-103.277	-31.692	349.209	72.231	-28.397	399.371	-14.214	-145.605
21	0.21	352.385	32.079	-4.772	357.172	43.794	250.473	368.292	69.631	242.414	355.979	-170.309	-108.96	358.019	21.364	-154.57	399.367	-14.193	-145.607	276.789	10.406	-91.185	349.209	72.26	-28.426	289.876	-103.255	-31.697	349.209	72.26	-28.426	399.367	-14.193	-145.607
